<?xml version="1.0" encoding="UTF-8"?>
<!DOCTYPE svg PUBLIC "-//W3C//DTD SVG 1.1//EN" "http://www.w3.org/Graphics/SVG/1.1/DTD/svg11.dtd">
<!-- Creator: CorelDRAW -->
<svg xmlns="http://www.w3.org/2000/svg" xml:space="preserve" width="960px" height="960px" style="shape-rendering:geometricPrecision; text-rendering:geometricPrecision; image-rendering:optimizeQuality; fill-rule:evenodd; clip-rule:evenodd"
viewBox="0 0 960 960"
 xmlns:xlink="http://www.w3.org/1999/xlink">
 <defs>
  <style type="text/css">
   <![CDATA[
    .fil0 {fill:#292D3E}
   ]]>
  </style>
 </defs>
 <g id="Capa_x0020_1">
  <metadata id="CorelCorpID_0Corel-Layer"/>
  <path class="fil0" d="M41.9751 266.219l153.029 154.825 37.2866 -36.3269c0,17.8171 -1.49254,418.508 -0.000755906,432.7l5.38734 25.1354 527.856 0c8.30891,0 5.41833,-14.3316 5.38885,-23.3382l0.435024 -434.934 35.9172 36.7922 153.961 -154.853c-4.55395,-6.80126 -47.5457,-48.4433 -57.0051,-57.9027 -25.6086,-25.6086 -94.475,-99.0705 -123.127,-110.279l-92.773 -23.9297 -48.477 0c-13.279,0 6.07446,45.5002 -41.7396,92.9178 -6.52006,6.46488 -9.38343,9.66236 -16.9761,15.3407 -5.89871,4.41184 -13.9952,9.94016 -21.0183,13.0953 -10.4942,3.59433 -50.6782,13.3036 -62.1052,13.3036 -21.572,0 -38.1097,-6.19918 -53.6557,-12.7748 -36.723,-15.5316 -66.7831,-56.2227 -73.6154,-95.1553 -3.40346,-19.3965 0.735496,-8.46917 -7.38557,-26.7273 -58.3181,0 -88.3646,-3.63893 -140.068,23.3167 -39.2905,20.4843 -89.5151,76.0978 -123.412,109.994 -9.57128,9.57203 -53.4006,52.0785 -57.9024,58.8008z"/>
 </g>
</svg>
