<?xml version="1.0" encoding="UTF-8"?>
<!DOCTYPE svg PUBLIC "-//W3C//DTD SVG 1.1//EN" "http://www.w3.org/Graphics/SVG/1.1/DTD/svg11.dtd">
<!-- Creator: CorelDRAW -->
<svg xmlns="http://www.w3.org/2000/svg" xml:space="preserve" width="960px" height="960px" style="shape-rendering:geometricPrecision; text-rendering:geometricPrecision; image-rendering:optimizeQuality; fill-rule:evenodd; clip-rule:evenodd"
viewBox="0 0 960 960"
 xmlns:xlink="http://www.w3.org/1999/xlink">
 <defs>
  <style type="text/css">
   <![CDATA[
    .fil0 {fill:#FFCE00;fill-rule:nonzero}
    .fil1 {fill:white;fill-rule:nonzero}
   ]]>
  </style>
    <clipPath id="id0">
     <path d="M313.21 187.599l644.375 0 20.767 837.958 -644.375 0 -20.767 -837.958z"/>
    </clipPath>
    <clipPath id="id1">
     <path d="M-5.23994 -8.30778l652.49 0 -34.131 876.475 -652.49 0 34.131 -876.475z"/>
    </clipPath>
 </defs>
 <g id="Capa_x0020_1">
  <metadata id="CorelCorpID_0Corel-Layer"/>
  <g id="_313752744">
   <g style="clip-path:url(#id0)">
    <image id="_313752168" transform="matrix(1 0 0 1 -166.79 545.558)" x="480" y="-357.958" width="665.142" height="837.958" xlink:href="icono_meta_Images\icono_meta_ImgID1.png"/>
   </g>
  </g>
  <path class="fil0" d="M647.326 962.657c-53.5714,0 -102.437,-7.23969 -146.597,-21.7183 -44.16,-14.4786 -83.2524,-34.749 -117.278,-60.8107l57.5531 -86.8724c31.8531,22.4421 65.1541,38.9117 99.9031,49.409 34.749,10.4969 68.05,15.7455 99.9031,15.7455 47.78,0 84.3386,-8.1445 109.677,-24.4328 25.3376,-16.2886 38.0066,-40.7218 38.0066,-73.2986 0,-19.5462 -4.34381,-35.8348 -13.0311,-48.8659 -8.68724,-13.0307 -23.5279,-24.9759 -44.5221,-35.8348 -20.9941,-10.859 -51.3993,-23.5279 -91.2159,-38.0066l-20.6321 -7.60139c-46.3321,-17.3745 -83.4338,-34.0252 -111.305,-49.9517 -27.8717,-15.9266 -50.4949,-36.7397 -67.8694,-62.4393 -17.3745,-25.6997 -26.0614,-58.0959 -26.0614,-97.1887 0,-41.9883 11.7638,-77.28 35.2917,-105.876 23.5279,-28.5955 54.1141,-49.7707 91.759,-63.5255 37.6445,-13.7548 77.8231,-20.6321 120.536,-20.6321 88.32,0 169.039,24.6138 242.157,73.8414l-56.4669 86.8724c-32.5773,-20.2704 -63.1635,-35.1111 -91.759,-44.5221 -28.5955,-9.41102 -60.268,-14.1169 -95.0169,-14.1169 -36.9207,0 -66.24,7.05865 -87.9583,21.1752 -21.7179,14.1169 -32.5769,34.93 -32.5769,62.4397 0,15.2024 3.98173,28.4145 11.9448,39.6355 7.96346,11.221 21.7183,22.261 41.2645,33.12 19.5462,10.859 47.4176,22.8042 83.6145,35.8348l21.7183 7.60139c47.0559,16.6503 85.0624,32.7579 114.02,48.3228 28.9572,15.5645 53.571,37.2828 73.8414,65.1541 20.2704,27.8717 30.4052,63.8876 30.4052,108.048 0,44.8842 -11.4017,83.0717 -34.2059,114.563 -22.8042,31.4914 -54.2952,55.0193 -94.4738,70.5838 -40.1783,15.5649 -87.0531,23.3473 -140.625,23.3473z"/>
  <g id="_313752912">
   <g style="clip-path:url(#id1)">
    <image id="_313740792" transform="matrix(1 0 0 1 -519.371 388.168)" x="480" y="-396.475" width="686.621" height="876.475" xlink:href="icono_meta_Images\icono_meta_ImgID2.png"/>
   </g>
  </g>
  <polygon class="fil1" points="602.942,144.49 254.489,144.49 254.489,366.858 555.947,366.858 542.192,474.604 254.489,474.604 254.489,779.5 123.819,779.5 123.819,36.7446 602.942,36.7446 "/>
 </g>
</svg>
